<svg version="1.1" xmlns="http://www.w3.org/2000/svg" viewBox="0 0 1512.468945018475 737.9314558331905" width="3024.93789003695" height="1475.862911666381">
  <!-- svg-source:excalidraw -->
  
  <defs>
    <style class="style-fonts">
      @font-face {
        font-family: "Virgil";
        src: url("https://excalidraw.com/Virgil.woff2");
      }
      @font-face {
        font-family: "Cascadia";
        src: url("https://excalidraw.com/Cascadia.woff2");
      }
      @font-face {
        font-family: "Assistant";
        src: url("https://excalidraw.com/Assistant-Regular.woff2");
      }
    </style>
    
  </defs>
  <g stroke-linecap="round" transform="translate(10 10) rotate(0 454.5042117655803 358.96572791659526)"><path d="M32 0 C350.89 0, 669.78 0, 877.01 0 M32 0 C237.74 0, 443.49 0, 877.01 0 M877.01 0 C898.34 0, 909.01 10.67, 909.01 32 M877.01 0 C898.34 0, 909.01 10.67, 909.01 32 M909.01 32 C909.01 188.73, 909.01 345.47, 909.01 685.93 M909.01 32 C909.01 288.98, 909.01 545.96, 909.01 685.93 M909.01 685.93 C909.01 707.26, 898.34 717.93, 877.01 717.93 M909.01 685.93 C909.01 707.26, 898.34 717.93, 877.01 717.93 M877.01 717.93 C649.02 717.93, 421.03 717.93, 32 717.93 M877.01 717.93 C565.87 717.93, 254.72 717.93, 32 717.93 M32 717.93 C10.67 717.93, 0 707.26, 0 685.93 M32 717.93 C10.67 717.93, 0 707.26, 0 685.93 M0 685.93 C0 445.8, 0 205.67, 0 32 M0 685.93 C0 498.07, 0 310.22, 0 32 M0 32 C0 10.67, 10.67 0, 32 0 M0 32 C0 10.67, 10.67 0, 32 0" stroke="#ffffff" stroke-width="2" fill="none"></path></g><g stroke-linecap="round" transform="translate(464.7440296702989 112.86623853548662) rotate(0 185.6258875970866 263.7019940276715)"><path d="M32 0 C100.39 0, 168.78 0, 339.25 0 M32 0 C98.22 0, 164.44 0, 339.25 0 M339.25 0 C360.59 0, 371.25 10.67, 371.25 32 M339.25 0 C360.59 0, 371.25 10.67, 371.25 32 M371.25 32 C371.25 154.94, 371.25 277.89, 371.25 495.4 M371.25 32 C371.25 188.66, 371.25 345.31, 371.25 495.4 M371.25 495.4 C371.25 516.74, 360.59 527.4, 339.25 527.4 M371.25 495.4 C371.25 516.74, 360.59 527.4, 339.25 527.4 M339.25 527.4 C264.17 527.4, 189.09 527.4, 32 527.4 M339.25 527.4 C218.38 527.4, 97.51 527.4, 32 527.4 M32 527.4 C10.67 527.4, 0 516.74, 0 495.4 M32 527.4 C10.67 527.4, 0 516.74, 0 495.4 M0 495.4 C0 401.16, 0 306.92, 0 32 M0 495.4 C0 333.56, 0 171.72, 0 32 M0 32 C0 10.67, 10.67 0, 32 0 M0 32 C0 10.67, 10.67 0, 32 0" stroke="#ffffff" stroke-width="2" fill="none"></path></g><g stroke-linecap="round" transform="translate(66.33814399465336 180.58981055973007) rotate(0 79.88693256217584 62.165109897853355)"><path d="M31.08 0 C61.3 0, 91.51 0, 128.69 0 M31.08 0 C63.82 0, 96.56 0, 128.69 0 M128.69 0 C149.41 0, 159.77 10.36, 159.77 31.08 M128.69 0 C149.41 0, 159.77 10.36, 159.77 31.08 M159.77 31.08 C159.77 55.77, 159.77 80.45, 159.77 93.25 M159.77 31.08 C159.77 49.83, 159.77 68.58, 159.77 93.25 M159.77 93.25 C159.77 113.97, 149.41 124.33, 128.69 124.33 M159.77 93.25 C159.77 113.97, 149.41 124.33, 128.69 124.33 M128.69 124.33 C103.15 124.33, 77.61 124.33, 31.08 124.33 M128.69 124.33 C91.28 124.33, 53.88 124.33, 31.08 124.33 M31.08 124.33 C10.36 124.33, 0 113.97, 0 93.25 M31.08 124.33 C10.36 124.33, 0 113.97, 0 93.25 M0 93.25 C0 73.82, 0 54.39, 0 31.08 M0 93.25 C0 72.58, 0 51.91, 0 31.08 M0 31.08 C0 10.36, 10.36 0, 31.08 0 M0 31.08 C0 10.36, 10.36 0, 31.08 0" stroke="#ffffff" stroke-width="2" fill="none"></path></g><g transform="translate(86.45507609906554 210.55492045758342) rotate(0 59.770000457763445 32.199999999999996)"><text x="59.77000045776367" y="25.760546874999996" font-family="Helvetica, Segoe UI Emoji" font-size="28px" fill="#ffffff" text-anchor="middle" style="white-space: pre;" direction="ltr" dominant-baseline="alphabetic">Webview </text><text x="59.77000045776367" y="57.96054687499999" font-family="Helvetica, Segoe UI Emoji" font-size="28px" fill="#ffffff" text-anchor="middle" style="white-space: pre;" direction="ltr" dominant-baseline="alphabetic">Process</text></g><g stroke-linecap="round" transform="translate(1120.0168781808707 382.5949993520775) rotate(0 191.22603341880222 134.9008436423845)"><path d="M32 0 C125.75 0, 219.49 0, 350.45 0 M32 0 C119.61 0, 207.23 0, 350.45 0 M350.45 0 C371.79 0, 382.45 10.67, 382.45 32 M350.45 0 C371.79 0, 382.45 10.67, 382.45 32 M382.45 32 C382.45 105.32, 382.45 178.63, 382.45 237.8 M382.45 32 C382.45 102.95, 382.45 173.89, 382.45 237.8 M382.45 237.8 C382.45 259.14, 371.79 269.8, 350.45 269.8 M382.45 237.8 C382.45 259.14, 371.79 269.8, 350.45 269.8 M350.45 269.8 C224.32 269.8, 98.2 269.8, 32 269.8 M350.45 269.8 C249.78 269.8, 149.1 269.8, 32 269.8 M32 269.8 C10.67 269.8, 0 259.14, 0 237.8 M32 269.8 C10.67 269.8, 0 259.14, 0 237.8 M0 237.8 C0 167.06, 0 96.32, 0 32 M0 237.8 C0 174.03, 0 110.26, 0 32 M0 32 C0 10.67, 10.67 0, 32 0 M0 32 C0 10.67, 10.67 0, 32 0" stroke="#ffffff" stroke-width="2" fill="none"></path></g><g transform="translate(684.0952852243863 236.5807709370614) rotate(0 68.25 32.199999999999996)"><text x="0" y="25.760546874999996" font-family="Helvetica, Segoe UI Emoji" font-size="28px" fill="#ffffff" text-anchor="start" style="white-space: pre;" direction="ltr" dominant-baseline="alphabetic">Application</text><text x="0" y="57.96054687499999" font-family="Helvetica, Segoe UI Emoji" font-size="28px" fill="#ffffff" text-anchor="start" style="white-space: pre;" direction="ltr" dominant-baseline="alphabetic">Process</text></g><g stroke-linecap="round" transform="translate(449.4134153257892 276.84102258157634) rotate(0 99.7809298730017 47.81931530604106)"><path d="M23.91 0 C64.86 0, 105.81 0, 175.65 0 M23.91 0 C84.1 0, 144.29 0, 175.65 0 M175.65 0 C191.59 0, 199.56 7.97, 199.56 23.91 M175.65 0 C191.59 0, 199.56 7.97, 199.56 23.91 M199.56 23.91 C199.56 42.55, 199.56 61.19, 199.56 71.73 M199.56 23.91 C199.56 40.56, 199.56 57.21, 199.56 71.73 M199.56 71.73 C199.56 87.67, 191.59 95.64, 175.65 95.64 M199.56 71.73 C199.56 87.67, 191.59 95.64, 175.65 95.64 M175.65 95.64 C132.74 95.64, 89.82 95.64, 23.91 95.64 M175.65 95.64 C118.37 95.64, 61.1 95.64, 23.91 95.64 M23.91 95.64 C7.97 95.64, 0 87.67, 0 71.73 M23.91 95.64 C7.97 95.64, 0 87.67, 0 71.73 M0 71.73 C0 61.27, 0 50.81, 0 23.91 M0 71.73 C0 53.83, 0 35.93, 0 23.91 M0 23.91 C0 7.97, 7.97 0, 23.91 0 M0 23.91 C0 7.97, 7.97 0, 23.91 0" stroke="#ffffff" stroke-width="2" fill="none"></path></g><g transform="translate(494.354345046203 308.5603378876174) rotate(0 54.84000015258789 16.099999999999994)"><text x="54.84000015258789" y="25.760546874999996" font-family="Helvetica, Segoe UI Emoji" font-size="28px" fill="#ffffff" text-anchor="middle" style="white-space: pre;" direction="ltr" dominant-baseline="alphabetic">Rest API</text></g><g stroke-linecap="round" transform="translate(452.1921255387397 138.39896869801981) rotate(0 100.77820305043406 61.32497886826126)"><path d="M30.66 0 C76 0, 121.34 0, 170.89 0 M30.66 0 C74.2 0, 117.73 0, 170.89 0 M170.89 0 C191.34 0, 201.56 10.22, 201.56 30.66 M170.89 0 C191.34 0, 201.56 10.22, 201.56 30.66 M201.56 30.66 C201.56 49.32, 201.56 67.98, 201.56 91.99 M201.56 30.66 C201.56 54.12, 201.56 77.58, 201.56 91.99 M201.56 91.99 C201.56 112.43, 191.34 122.65, 170.89 122.65 M201.56 91.99 C201.56 112.43, 191.34 122.65, 170.89 122.65 M170.89 122.65 C135.9 122.65, 100.91 122.65, 30.66 122.65 M170.89 122.65 C123.64 122.65, 76.39 122.65, 30.66 122.65 M30.66 122.65 C10.22 122.65, 0 112.43, 0 91.99 M30.66 122.65 C10.22 122.65, 0 112.43, 0 91.99 M0 91.99 C0 73.47, 0 54.96, 0 30.66 M0 91.99 C0 68.6, 0 45.2, 0 30.66 M0 30.66 C0 10.22, 10.22 0, 30.66 0 M0 30.66 C0 10.22, 10.22 0, 30.66 0" stroke="#ffffff" stroke-width="2" fill="none"></path></g><g transform="translate(480.8503258425917 167.5239475662811) rotate(0 72.12000274658203 32.199999999999996)"><text x="72.12000274658203" y="25.760546874999996" font-family="Helvetica, Segoe UI Emoji" font-size="28px" fill="#ffffff" text-anchor="middle" style="white-space: pre;" direction="ltr" dominant-baseline="alphabetic">Websocket </text><text x="72.12000274658203" y="57.96054687499999" font-family="Helvetica, Segoe UI Emoji" font-size="28px" fill="#ffffff" text-anchor="middle" style="white-space: pre;" direction="ltr" dominant-baseline="alphabetic">Server</text></g><g mask="url(#mask-N1-PuNUkCyW0QHs7ztJng)" stroke-linecap="round"><g transform="translate(431.7284410073489 197.8345680993213) rotate(0 -93.03529417147138 11.251039241605078)"><path d="M0 0 C-31.01 3.75, -155.06 18.75, -186.07 22.5 M0 0 C-31.01 3.75, -155.06 18.75, -186.07 22.5" stroke="#ffffff" stroke-width="2" fill="none"></path></g><g transform="translate(431.7284410073489 197.8345680993213) rotate(0 -93.03529417147138 11.251039241605078)"><path d="M-22.3 11.31 C-13.51 6.85, -4.73 2.4, 0 0 M-22.3 11.31 C-17.08 8.66, -11.85 6.01, 0 0" stroke="#ffffff" stroke-width="2" fill="none"></path></g><g transform="translate(431.7284410073489 197.8345680993213) rotate(0 -93.03529417147138 11.251039241605078)"><path d="M-24.35 -5.67 C-14.76 -3.44, -5.17 -1.2, 0 0 M-24.35 -5.67 C-18.65 -4.34, -12.95 -3.01, 0 0" stroke="#ffffff" stroke-width="2" fill="none"></path></g><g transform="translate(431.7284410073489 197.8345680993213) rotate(0 -93.03529417147138 11.251039241605078)"><path d="M-163.77 11.19 C-172.56 15.65, -181.34 20.1, -186.07 22.5 M-163.77 11.19 C-169 13.84, -174.22 16.49, -186.07 22.5" stroke="#ffffff" stroke-width="2" fill="none"></path></g><g transform="translate(431.7284410073489 197.8345680993213) rotate(0 -93.03529417147138 11.251039241605078)"><path d="M-161.72 28.17 C-171.31 25.94, -180.9 23.7, -186.07 22.5 M-161.72 28.17 C-167.42 26.84, -173.12 25.52, -186.07 22.5" stroke="#ffffff" stroke-width="2" fill="none"></path></g></g><mask id="mask-N1-PuNUkCyW0QHs7ztJng"><rect x="0" y="0" fill="#fff" width="717.7990293502917" height="320.33664658253144"></rect><rect x="292.90314592034974" y="197.58560734092637" fill="#000" width="91.58000183105469" height="23" opacity="1"></rect></mask><g transform="translate(292.90314592034974 197.58560734092634) rotate(0 45.7900009155278 11.5)"><text x="45.790000915527344" y="18.400390625" font-family="Helvetica, Segoe UI Emoji" font-size="20px" fill="#ffffff" text-anchor="middle" style="white-space: pre;" direction="ltr" dominant-baseline="alphabetic">Messages</text></g><g mask="url(#mask-nWgESQ9_fKX7FsYSmD2oz)" stroke-linecap="round"><g transform="translate(246.01597043704624 263.47679186189225) rotate(0 92.0351069334315 26.81968751094889)"><path d="M0 0 C30.68 8.94, 153.39 44.7, 184.07 53.64 M0 0 C30.68 8.94, 153.39 44.7, 184.07 53.64" stroke="#ffffff" stroke-width="2" fill="none"></path></g><g transform="translate(246.01597043704624 263.47679186189225) rotate(0 92.0351069334315 26.81968751094889)"><path d="M159.12 55.28 C167.07 54.75, 175.01 54.23, 184.07 53.64 M159.12 55.28 C165.06 54.89, 170.99 54.5, 184.07 53.64" stroke="#ffffff" stroke-width="2" fill="none"></path></g><g transform="translate(246.01597043704624 263.47679186189225) rotate(0 92.0351069334315 26.81968751094889)"><path d="M163.91 38.86 C170.33 43.56, 176.75 48.27, 184.07 53.64 M163.91 38.86 C168.71 42.37, 173.5 45.89, 184.07 53.64" stroke="#ffffff" stroke-width="2" fill="none"></path></g></g><mask id="mask-nWgESQ9_fKX7FsYSmD2oz"><rect x="0" y="0" fill="#fff" width="530.0861843039092" height="417.11616688379"></rect><rect x="286.0610756920114" y="278.79647937284113" fill="#000" width="103.9800033569336" height="23" opacity="1"></rect></mask><g transform="translate(286.0610756920114 278.7964793728412) rotate(0 51.99000167846634 11.499999999999996)"><text x="51.9900016784668" y="18.400390625" font-family="Helvetica, Segoe UI Emoji" font-size="20px" fill="#ffffff" text-anchor="middle" style="white-space: pre;" direction="ltr" dominant-baseline="alphabetic">API queries</text></g><g stroke-linecap="round" transform="translate(1112.0615549327094 537.2266640080884) rotate(0 82.59699916497993 47.81931530604106)"><path d="M23.91 0 C68.62 0, 113.33 0, 141.28 0 M23.91 0 C68.43 0, 112.94 0, 141.28 0 M141.28 0 C157.22 0, 165.19 7.97, 165.19 23.91 M141.28 0 C157.22 0, 165.19 7.97, 165.19 23.91 M165.19 23.91 C165.19 37.95, 165.19 52, 165.19 71.73 M165.19 23.91 C165.19 41.83, 165.19 59.74, 165.19 71.73 M165.19 71.73 C165.19 87.67, 157.22 95.64, 141.28 95.64 M165.19 71.73 C165.19 87.67, 157.22 95.64, 141.28 95.64 M141.28 95.64 C103.08 95.64, 64.89 95.64, 23.91 95.64 M141.28 95.64 C109.86 95.64, 78.43 95.64, 23.91 95.64 M23.91 95.64 C7.97 95.64, 0 87.67, 0 71.73 M23.91 95.64 C7.97 95.64, 0 87.67, 0 71.73 M0 71.73 C0 56.44, 0 41.16, 0 23.91 M0 71.73 C0 54.85, 0 37.98, 0 23.91 M0 23.91 C0 7.97, 7.97 0, 23.91 0 M0 23.91 C0 7.97, 7.97 0, 23.91 0" stroke="#ffffff" stroke-width="2" fill="none"></path></g><g transform="translate(1139.8185539451015 568.9459793141294) rotate(0 54.84000015258789 16.099999999999994)"><text x="54.84000015258789" y="25.760546874999996" font-family="Helvetica, Segoe UI Emoji" font-size="28px" fill="#ffffff" text-anchor="middle" style="white-space: pre;" direction="ltr" dominant-baseline="alphabetic">Rest API</text></g><g stroke-linecap="round" transform="translate(1112.3905585592365 403.3829711745019) rotate(0 87.78402338639944 61.32497886826127)"><path d="M30.66 0 C53.87 0, 77.08 0, 144.91 0 M30.66 0 C68.41 0, 106.16 0, 144.91 0 M144.91 0 C165.35 0, 175.57 10.22, 175.57 30.66 M144.91 0 C165.35 0, 175.57 10.22, 175.57 30.66 M175.57 30.66 C175.57 51.79, 175.57 72.91, 175.57 91.99 M175.57 30.66 C175.57 43.83, 175.57 57, 175.57 91.99 M175.57 91.99 C175.57 112.43, 165.35 122.65, 144.91 122.65 M175.57 91.99 C175.57 112.43, 165.35 122.65, 144.91 122.65 M144.91 122.65 C117.91 122.65, 90.92 122.65, 30.66 122.65 M144.91 122.65 C121.62 122.65, 98.33 122.65, 30.66 122.65 M30.66 122.65 C10.22 122.65, 0 112.43, 0 91.99 M30.66 122.65 C10.22 122.65, 0 112.43, 0 91.99 M0 91.99 C0 71.42, 0 50.84, 0 30.66 M0 91.99 C0 69.52, 0 47.05, 0 30.66 M0 30.66 C0 10.22, 10.22 0, 30.66 0 M0 30.66 C0 10.22, 10.22 0, 30.66 0" stroke="#ffffff" stroke-width="2" fill="none"></path></g><g transform="translate(1128.0545791990544 432.5079500427631) rotate(0 72.12000274658203 32.19999999999999)"><text x="72.12000274658203" y="25.760546874999996" font-family="Helvetica, Segoe UI Emoji" font-size="28px" fill="#ffffff" text-anchor="middle" style="white-space: pre;" direction="ltr" dominant-baseline="alphabetic">Websocket </text><text x="72.12000274658203" y="57.96054687499999" font-family="Helvetica, Segoe UI Emoji" font-size="28px" fill="#ffffff" text-anchor="middle" style="white-space: pre;" direction="ltr" dominant-baseline="alphabetic">Server</text></g><g stroke-linecap="round" transform="translate(687.8461077804441 441.5162807709628) rotate(0 80.95313188304863 79.82878282911742)"><path d="M32 0 C60.24 0, 88.49 0, 129.91 0 M32 0 C69.02 0, 106.04 0, 129.91 0 M129.91 0 C151.24 0, 161.91 10.67, 161.91 32 M129.91 0 C151.24 0, 161.91 10.67, 161.91 32 M161.91 32 C161.91 58.34, 161.91 84.68, 161.91 127.66 M161.91 32 C161.91 67.98, 161.91 103.96, 161.91 127.66 M161.91 127.66 C161.91 148.99, 151.24 159.66, 129.91 159.66 M161.91 127.66 C161.91 148.99, 151.24 159.66, 129.91 159.66 M129.91 159.66 C104 159.66, 78.09 159.66, 32 159.66 M129.91 159.66 C99.77 159.66, 69.63 159.66, 32 159.66 M32 159.66 C10.67 159.66, 0 148.99, 0 127.66 M32 159.66 C10.67 159.66, 0 148.99, 0 127.66 M0 127.66 C0 89.56, 0 51.47, 0 32 M0 127.66 C0 97.58, 0 67.5, 0 32 M0 32 C0 10.67, 10.67 0, 32 0 M0 32 C0 10.67, 10.67 0, 32 0" stroke="#ffffff" stroke-width="2" fill="none"></path></g><g transform="translate(700.9792399686685 505.2450636000802) rotate(0 67.81999969482422 16.099999999999994)"><text x="67.81999969482422" y="25.760546874999996" font-family="Helvetica, Segoe UI Emoji" font-size="28px" fill="#ffffff" text-anchor="middle" style="white-space: pre;" direction="ltr" dominant-baseline="alphabetic">Web Client</text></g><g mask="url(#mask-MU1LNlP9GkULbHBYrBIV-)" stroke-linecap="round"><g transform="translate(866.5798897674949 537.9079760618408) rotate(0 116.42588847982779 24.726834275295886)"><path d="M0 0 C38.81 8.24, 194.04 41.21, 232.85 49.45 M0 0 C38.81 8.24, 194.04 41.21, 232.85 49.45" stroke="#ffffff" stroke-width="2" fill="none"></path></g><g transform="translate(866.5798897674949 537.9079760618408) rotate(0 116.42588847982779 24.726834275295886)"><path d="M208.1 52.94 C217.25 51.65, 226.4 50.36, 232.85 49.45 M208.1 52.94 C217.23 51.65, 226.37 50.37, 232.85 49.45" stroke="#ffffff" stroke-width="2" fill="none"></path></g><g transform="translate(866.5798897674949 537.9079760618408) rotate(0 116.42588847982779 24.726834275295886)"><path d="M211.65 36.21 C219.49 41.11, 227.33 46, 232.85 49.45 M211.65 36.21 C219.47 41.1, 227.3 45.99, 232.85 49.45" stroke="#ffffff" stroke-width="2" fill="none"></path></g></g><mask id="mask-MU1LNlP9GkULbHBYrBIV-"><rect x="0" y="0" fill="#fff" width="1199.4316667271505" height="687.3616446124327"></rect><rect x="931.0157765688555" y="551.1348103371367" fill="#000" width="103.9800033569336" height="23" opacity="1"></rect></mask><g transform="translate(931.0157765688555 551.1348103371367) rotate(0 51.99000167846725 11.499999999999972)"><text x="51.9900016784668" y="18.400390625" font-family="Helvetica, Segoe UI Emoji" font-size="20px" fill="#ffffff" text-anchor="middle" style="white-space: pre;" direction="ltr" dominant-baseline="alphabetic">API queries</text></g><g mask="url(#mask-rUMs-uGTH1toGn1O7VQ_4)" stroke-linecap="round"><g transform="translate(865.8167456696428 499.9772979858103) rotate(0 113.21016354929816 -20.81482752601154)"><path d="M0 0 C37.74 -6.94, 188.68 -34.69, 226.42 -41.63 M0 0 C37.74 -6.94, 188.68 -34.69, 226.42 -41.63" stroke="#ffffff" stroke-width="2" fill="none"></path></g><g transform="translate(865.8167456696428 499.9772979858103) rotate(0 113.21016354929816 -20.81482752601154)"><path d="M21.56 -12.66 C14.3 -8.4, 7.04 -4.13, 0 0 M21.56 -12.66 C15.66 -9.19, 9.76 -5.73, 0 0" stroke="#ffffff" stroke-width="2" fill="none"></path></g><g transform="translate(865.8167456696428 499.9772979858103) rotate(0 113.21016354929816 -20.81482752601154)"><path d="M24.65 4.16 C16.35 2.76, 8.05 1.36, 0 0 M24.65 4.16 C17.9 3.02, 11.15 1.88, 0 0" stroke="#ffffff" stroke-width="2" fill="none"></path></g><g transform="translate(865.8167456696428 499.9772979858103) rotate(0 113.21016354929816 -20.81482752601154)"><path d="M204.86 -28.97 C212.12 -33.23, 219.38 -37.49, 226.42 -41.63 M204.86 -28.97 C210.76 -32.44, 216.66 -35.9, 226.42 -41.63" stroke="#ffffff" stroke-width="2" fill="none"></path></g><g transform="translate(865.8167456696428 499.9772979858103) rotate(0 113.21016354929816 -20.81482752601154)"><path d="M201.77 -45.79 C210.07 -44.39, 218.37 -42.99, 226.42 -41.63 M201.77 -45.79 C208.52 -44.65, 215.27 -43.51, 226.42 -41.63" stroke="#ffffff" stroke-width="2" fill="none"></path></g></g><mask id="mask-rUMs-uGTH1toGn1O7VQ_4"><rect x="0" y="0" fill="#fff" width="1192.2370727682392" height="641.6069530378334"></rect><rect x="933.2369083034137" y="467.6624704597988" fill="#000" width="91.58000183105469" height="23" opacity="1"></rect></mask><g transform="translate(933.2369083034137 467.6624704597988) rotate(0 45.790000915527344 11.499999999999986)"><text x="45.790000915527344" y="18.400390625" font-family="Helvetica, Segoe UI Emoji" font-size="20px" fill="#ffffff" text-anchor="middle" style="white-space: pre;" direction="ltr" dominant-baseline="alphabetic">Messages</text></g><g transform="translate(1340.1886024198802 526.1046039690652) rotate(0 60.43000030517578 48.30000000000001)"><text x="0" y="25.760546874999996" font-family="Helvetica, Segoe UI Emoji" font-size="28px" fill="#ffffff" text-anchor="start" style="white-space: pre;" direction="ltr" dominant-baseline="alphabetic">Admin</text><text x="0" y="57.96054687499999" font-family="Helvetica, Segoe UI Emoji" font-size="28px" fill="#ffffff" text-anchor="start" style="white-space: pre;" direction="ltr" dominant-baseline="alphabetic">controlled</text><text x="0" y="90.160546875" font-family="Helvetica, Segoe UI Emoji" font-size="28px" fill="#ffffff" text-anchor="start" style="white-space: pre;" direction="ltr" dominant-baseline="alphabetic">Server</text></g><g stroke-linecap="round" transform="translate(62.50154452679135 366.9607332334614) rotate(0 101.67159002246012 65.87173438074893)"><path d="M32 0 C66.8 0, 101.6 0, 171.34 0 M32 0 C75.39 0, 118.79 0, 171.34 0 M171.34 0 C192.68 0, 203.34 10.67, 203.34 32 M171.34 0 C192.68 0, 203.34 10.67, 203.34 32 M203.34 32 C203.34 46.01, 203.34 60.03, 203.34 99.74 M203.34 32 C203.34 57.53, 203.34 83.06, 203.34 99.74 M203.34 99.74 C203.34 121.08, 192.68 131.74, 171.34 131.74 M203.34 99.74 C203.34 121.08, 192.68 131.74, 171.34 131.74 M171.34 131.74 C137.03 131.74, 102.73 131.74, 32 131.74 M171.34 131.74 C139.79 131.74, 108.23 131.74, 32 131.74 M32 131.74 C10.67 131.74, 0 121.08, 0 99.74 M32 131.74 C10.67 131.74, 0 121.08, 0 99.74 M0 99.74 C0 83.57, 0 67.4, 0 32 M0 99.74 C0 75.14, 0 50.54, 0 32 M0 32 C0 10.67, 10.67 0, 32 0 M0 32 C0 10.67, 10.67 0, 32 0" stroke="#ffffff" stroke-width="2" fill="none"></path></g><g transform="translate(85.8231360751306 400.6324676142103) rotate(0 78.3499984741211 32.19999999999999)"><text x="78.3499984741211" y="25.760546874999996" font-family="Helvetica, Segoe UI Emoji" font-size="28px" fill="#ffffff" text-anchor="middle" style="white-space: pre;" direction="ltr" dominant-baseline="alphabetic">test</text><text x="78.3499984741211" y="57.96054687499999" font-family="Helvetica, Segoe UI Emoji" font-size="28px" fill="#ffffff" text-anchor="middle" style="white-space: pre;" direction="ltr" dominant-baseline="alphabetic">application 1</text></g><g stroke-linecap="round"><g transform="translate(427.66007207224993 497.9766855217258) rotate(0 -70.88371417058943 -30.039807533539133)"><path d="M0 0 C-23.63 -10.01, -118.14 -50.07, -141.77 -60.08" stroke="#ffffff" stroke-width="2.5" fill="none" stroke-dasharray="1.5 8"></path></g></g><mask></mask><g stroke-linecap="round" transform="translate(449.13998545727463 395.6006177468306) rotate(0 103.1035842481283 113.12754382780793)"><path d="M32 0 C85.8 0, 139.6 0, 174.21 0 M32 0 C64.9 0, 97.79 0, 174.21 0 M174.21 0 C195.54 0, 206.21 10.67, 206.21 32 M174.21 0 C195.54 0, 206.21 10.67, 206.21 32 M206.21 32 C206.21 67.05, 206.21 102.1, 206.21 194.26 M206.21 32 C206.21 81.45, 206.21 130.91, 206.21 194.26 M206.21 194.26 C206.21 215.59, 195.54 226.26, 174.21 226.26 M206.21 194.26 C206.21 215.59, 195.54 226.26, 174.21 226.26 M174.21 226.26 C139.66 226.26, 105.11 226.26, 32 226.26 M174.21 226.26 C136.23 226.26, 98.26 226.26, 32 226.26 M32 226.26 C10.67 226.26, 0 215.59, 0 194.26 M32 226.26 C10.67 226.26, 0 215.59, 0 194.26 M0 194.26 C0 152.76, 0 111.27, 0 32 M0 194.26 C0 152.65, 0 111.05, 0 32 M0 32 C0 10.67, 10.67 0, 32 0 M0 32 C0 10.67, 10.67 0, 32 0" stroke="#ffffff" stroke-width="2" fill="none"></path></g><g transform="translate(470.3235715364581 460.4281615746385) rotate(0 81.91999816894531 48.29999999999998)"><text x="81.91999816894531" y="25.760546874999996" font-family="Helvetica, Segoe UI Emoji" font-size="28px" fill="#ffffff" text-anchor="middle" style="white-space: pre;" direction="ltr" dominant-baseline="alphabetic">System / </text><text x="81.91999816894531" y="57.96054687499999" font-family="Helvetica, Segoe UI Emoji" font-size="28px" fill="#ffffff" text-anchor="middle" style="white-space: pre;" direction="ltr" dominant-baseline="alphabetic">Environment </text><text x="81.91999816894531" y="90.160546875" font-family="Helvetica, Segoe UI Emoji" font-size="28px" fill="#ffffff" text-anchor="middle" style="white-space: pre;" direction="ltr" dominant-baseline="alphabetic">monitor</text></g><g stroke-linecap="round" transform="translate(61.069550301124764 525.9120922826601) rotate(0 101.67159002246035 65.87173438074893)"><path d="M32 0 C79.52 0, 127.03 0, 171.34 0 M32 0 C66.65 0, 101.3 0, 171.34 0 M171.34 0 C192.68 0, 203.34 10.67, 203.34 32 M171.34 0 C192.68 0, 203.34 10.67, 203.34 32 M203.34 32 C203.34 46.71, 203.34 61.42, 203.34 99.74 M203.34 32 C203.34 56.04, 203.34 80.08, 203.34 99.74 M203.34 99.74 C203.34 121.08, 192.68 131.74, 171.34 131.74 M203.34 99.74 C203.34 121.08, 192.68 131.74, 171.34 131.74 M171.34 131.74 C133.3 131.74, 95.27 131.74, 32 131.74 M171.34 131.74 C134.04 131.74, 96.74 131.74, 32 131.74 M32 131.74 C10.67 131.74, 0 121.08, 0 99.74 M32 131.74 C10.67 131.74, 0 121.08, 0 99.74 M0 99.74 C0 72.82, 0 45.9, 0 32 M0 99.74 C0 74.11, 0 48.48, 0 32 M0 32 C0 10.67, 10.67 0, 32 0 M0 32 C0 10.67, 10.67 0, 32 0" stroke="#ffffff" stroke-width="2" fill="none"></path></g><g transform="translate(84.39114184946402 559.5838266634091) rotate(0 78.34999847412087 32.19999999999999)"><text x="78.3499984741211" y="25.760546874999996" font-family="Helvetica, Segoe UI Emoji" font-size="28px" fill="#ffffff" text-anchor="middle" style="white-space: pre;" direction="ltr" dominant-baseline="alphabetic">test</text><text x="78.3499984741211" y="57.96054687499999" font-family="Helvetica, Segoe UI Emoji" font-size="28px" fill="#ffffff" text-anchor="middle" style="white-space: pre;" direction="ltr" dominant-baseline="alphabetic">application 2</text></g><g stroke-linecap="round"><g transform="translate(434.10404608776025 531.4653301909957) rotate(0 -78.04368529893281 28.1463754460994)"><path d="M0 0 C-26.01 9.38, -130.07 46.91, -156.09 56.29" stroke="#ffffff" stroke-width="2.5" fill="none" stroke-dasharray="1.5 8"></path></g></g><mask></mask><g transform="translate(334.73077882885445 34.43405555538547) rotate(0 123.47000122070312 20.700000000000003)"><text x="0" y="33.120703125" font-family="Helvetica, Segoe UI Emoji" font-size="36px" fill="#ffffff" text-anchor="start" style="white-space: pre;" direction="ltr" dominant-baseline="alphabetic">User's machine</text></g><g stroke-linecap="round" transform="translate(1301.3268811550615 136.40966290084054) rotate(0 90.93163332994664 68.0197257192516)"><path d="M32 0 C75.94 0, 119.89 0, 149.86 0 M32 0 C63.9 0, 95.79 0, 149.86 0 M149.86 0 C171.2 0, 181.86 10.67, 181.86 32 M149.86 0 C171.2 0, 181.86 10.67, 181.86 32 M181.86 32 C181.86 59.8, 181.86 87.6, 181.86 104.04 M181.86 32 C181.86 52.6, 181.86 73.21, 181.86 104.04 M181.86 104.04 C181.86 125.37, 171.2 136.04, 149.86 136.04 M181.86 104.04 C181.86 125.37, 171.2 136.04, 149.86 136.04 M149.86 136.04 C124.59 136.04, 99.32 136.04, 32 136.04 M149.86 136.04 C121.4 136.04, 92.93 136.04, 32 136.04 M32 136.04 C10.67 136.04, 0 125.37, 0 104.04 M32 136.04 C10.67 136.04, 0 125.37, 0 104.04 M0 104.04 C0 76.11, 0 48.19, 0 32 M0 104.04 C0 82.62, 0 61.21, 0 32 M0 32 C0 10.67, 10.67 0, 32 0 M0 32 C0 10.67, 10.67 0, 32 0" stroke="#ffffff" stroke-width="2" fill="none"></path></g><g transform="translate(1323.2185135694808 188.32938862009215) rotate(0 69.04000091552734 16.099999999999998)"><text x="69.04000091552734" y="25.760546874999996" font-family="Helvetica, Segoe UI Emoji" font-size="28px" fill="#ffffff" text-anchor="middle" style="white-space: pre;" direction="ltr" dominant-baseline="alphabetic">Test Admin</text></g><g stroke-linecap="round" transform="translate(1305.6228638320663 368.39272745913) rotate(0 88.06764487861028 64.43974015508047)"><path d="M32 0 C62.7 0, 93.4 0, 144.14 0 M32 0 C60.23 0, 88.46 0, 144.14 0 M144.14 0 C165.47 0, 176.14 10.67, 176.14 32 M144.14 0 C165.47 0, 176.14 10.67, 176.14 32 M176.14 32 C176.14 53.4, 176.14 74.79, 176.14 96.88 M176.14 32 C176.14 56.85, 176.14 81.7, 176.14 96.88 M176.14 96.88 C176.14 118.21, 165.47 128.88, 144.14 128.88 M176.14 96.88 C176.14 118.21, 165.47 128.88, 144.14 128.88 M144.14 128.88 C107.56 128.88, 70.99 128.88, 32 128.88 M144.14 128.88 C119.12 128.88, 94.1 128.88, 32 128.88 M32 128.88 C10.67 128.88, 0 118.21, 0 96.88 M32 128.88 C10.67 128.88, 0 118.21, 0 96.88 M0 96.88 C0 74.28, 0 51.68, 0 32 M0 96.88 C0 71.17, 0 45.45, 0 32 M0 32 C0 10.67, 10.67 0, 32 0 M0 32 C0 10.67, 10.67 0, 32 0" stroke="#ffffff" stroke-width="2" fill="none"></path></g><g transform="translate(1354.280508863265 400.6324676142105) rotate(0 39.40999984741211 32.19999999999999)"><text x="39.40999984741211" y="25.760546874999996" font-family="Helvetica, Segoe UI Emoji" font-size="28px" fill="#ffffff" text-anchor="middle" style="white-space: pre;" direction="ltr" dominant-baseline="alphabetic">Admin</text><text x="39.40999984741211" y="57.96054687499999" font-family="Helvetica, Segoe UI Emoji" font-size="28px" fill="#ffffff" text-anchor="middle" style="white-space: pre;" direction="ltr" dominant-baseline="alphabetic">API</text></g><g stroke-linecap="round"><g transform="translate(1389.9269246831745 289.63304504736516) rotate(0 -0.29467764803075625 32.93586719037445)"><path d="M0 0 C-0.1 10.98, -0.49 54.89, -0.59 65.87 M0 0 C-0.1 10.98, -0.49 54.89, -0.59 65.87" stroke="#ffffff" stroke-width="2" fill="none"></path></g><g transform="translate(1389.9269246831745 289.63304504736516) rotate(0 -0.29467764803075625 32.93586719037445)"><path d="M-8.93 42.3 C-6.62 48.82, -4.32 55.34, -0.59 65.87 M-8.93 42.3 C-7.01 47.74, -5.08 53.18, -0.59 65.87" stroke="#ffffff" stroke-width="2" fill="none"></path></g><g transform="translate(1389.9269246831745 289.63304504736516) rotate(0 -0.29467764803075625 32.93586719037445)"><path d="M8.17 42.46 C5.75 48.93, 3.32 55.41, -0.59 65.87 M8.17 42.46 C6.15 47.86, 4.13 53.26, -0.59 65.87" stroke="#ffffff" stroke-width="2" fill="none"></path></g></g><mask></mask></svg>
